<?xml version="1.0" standalone="no"?>
<!DOCTYPE svg PUBLIC "-//W3C//DTD SVG 20010904//EN"
 "http://www.w3.org/TR/2001/REC-SVG-20010904/DTD/svg10.dtd">
<svg version="1.0" xmlns="http://www.w3.org/2000/svg"
 width="173.000000pt" height="173.000000pt" viewBox="0 0 173.000000 173.000000"
 preserveAspectRatio="xMidYMid meet">
<metadata>
Created by potrace 1.11, written by Peter Selinger 2001-2013
</metadata>
<g transform="translate(0.000000,173.000000) scale(0.100000,-0.100000)"
fill="#000000" stroke="none">
<path d="M1049 1701 c-7 -9 -15 -24 -17 -32 -2 -7 -7 -16 -10 -19 -4 -3 -18
-26 -31 -52 -13 -27 -29 -48 -34 -48 -6 0 -7 -3 -4 -6 7 -7 -22 -64 -38 -76
-5 -4 -7 -8 -3 -8 6 0 -21 -46 -49 -85 -5 -6 -9 -17 -11 -25 -2 -8 -9 -18 -15
-22 -7 -4 -8 -8 -4 -8 4 0 -4 -17 -18 -37 -14 -21 -25 -41 -25 -45 0 -4 -16
-34 -35 -67 -20 -33 -35 -64 -35 -67 1 -4 -2 -10 -8 -13 -5 -3 -26 -40 -48
-81 -21 -41 -41 -77 -44 -80 -3 -3 -17 -26 -30 -52 -14 -27 -29 -48 -33 -48
-5 0 -6 -4 -2 -9 3 -5 -2 -16 -10 -25 -8 -8 -12 -17 -8 -19 10 -6 161 -17 261
-19 40 -1 75 -5 77 -8 2 -3 -1 -25 -6 -50 -5 -25 -11 -63 -14 -85 -4 -22 -9
-47 -12 -55 -3 -8 -7 -26 -9 -40 -3 -29 -23 -136 -30 -165 -3 -11 -8 -38 -10
-60 -3 -22 -8 -47 -11 -55 -3 -8 -7 -31 -10 -50 -2 -19 -8 -48 -13 -64 -12
-34 -13 -76 -2 -76 4 0 18 23 31 50 14 28 29 50 34 50 4 0 6 4 2 9 -3 5 0 15
7 23 7 7 14 20 16 28 2 8 9 22 16 30 7 8 24 38 38 65 60 115 73 140 81 143 4
2 5 8 1 13 -3 5 -1 9 4 9 4 0 21 27 37 60 16 33 33 60 37 60 5 0 7 4 3 9 -3 5
0 15 7 23 7 7 14 20 16 28 2 8 10 22 17 30 7 8 37 60 65 115 29 55 63 118 75
140 42 72 46 70 -146 69 -190 -1 -172 -7 -156 61 3 11 10 56 17 100 7 44 14
87 17 95 5 18 5 16 15 65 4 22 10 54 13 70 3 17 12 64 20 105 9 41 18 95 21
119 3 24 10 55 15 69 12 31 7 37 -12 13z"/>
</g>
</svg>
